# xmcd
# 
# Track frame offsets:
#     150
#     23977
#     43307
#     63355
#     83032
#     99960
#     125502
#     141092
#     158047
#     173052
#     194010
#     212110
#     249732
# 
# Disc length: 4440
# 
# Revision: 1
# Processed by: cddbd v1.5.2PL0 Copyright (c) Steve Scherf et al.
# Submitted via: BonkEnc v1.0.8
# 
DISCID=b711560d
DTITLE=広沢タダシ - 理想郷
DYEAR=2003
DGENRE=JPop
TTITLE0=星空の向こう側
TTITLE1=理想郷
TTITLE2=ブルー
TTITLE3=さよならのキスをしよう
TTITLE4=らせん階段
TTITLE5=悲しみのぬけがら
TTITLE6=チキンレース
TTITLE7=シャワー
TTITLE8=レモンとオレンジ
TTITLE9=アンソニー
TTITLE10=嘘泣き
TTITLE11=まあるい日々
TTITLE12=CCCDデータ（Not Music）
EXTD=YEAR: 2003
EXTT0=
EXTT1=
EXTT2=
EXTT3=
EXTT4=
EXTT5=
EXTT6=
EXTT7=
EXTT8=
EXTT9=
EXTT10=
EXTT11=
EXTT12=
PLAYORDER=
